<?xml version="1.0" encoding="utf-8"?>
<!-- Generator: Adobe Illustrator 16.0.0, SVG Export Plug-In . SVG Version: 6.00 Build 0)  -->
<!DOCTYPE svg PUBLIC "-//W3C//DTD SVG 1.1//EN" "http://www.w3.org/Graphics/SVG/1.1/DTD/svg11.dtd">
<svg version="1.1" id="Layer_1" xmlns="http://www.w3.org/2000/svg" xmlns:xlink="http://www.w3.org/1999/xlink" x="0px" y="0px"
	 width="232.695px" height="223px" viewBox="0 0 232.695 223" enable-background="new 0 0 232.695 223" xml:space="preserve">
<g id="Layer_1_1_">
</g>
<path fill="#F7F4E4" d="M173.847,177.184c0,5.564-4.51,10.074-10.073,10.074h-15.109c-5.562,0-10.073-4.51-10.073-10.074V45.816
	c0-5.563,4.511-10.073,10.073-10.073h15.109c5.563,0,10.073,4.51,10.073,10.073V177.184z"/>
<path fill="#F7F4E4" d="M94.103,177.184c0,5.564-4.51,10.074-10.073,10.074H68.921c-5.563,0-10.073-4.51-10.073-10.074V45.816
	c0-5.563,4.51-10.073,10.073-10.073H84.03c5.562,0,10.073,4.51,10.073,10.073V177.184z"/>
<path fill="none" stroke="#F7F4E4" stroke-width="12" stroke-miterlimit="10" d="M214.847,198c0,6.627-5.373,12-12,12h-173
	c-6.627,0-12-5.373-12-12V25c0-6.627,5.373-12,12-12h173c6.627,0,12,5.373,12,12V198z"/>
</svg>
