<?xml version="1.0" encoding="utf-8"?>
<!-- Generator: Adobe Illustrator 16.0.0, SVG Export Plug-In . SVG Version: 6.00 Build 0)  -->
<!DOCTYPE svg PUBLIC "-//W3C//DTD SVG 1.1//EN" "http://www.w3.org/Graphics/SVG/1.1/DTD/svg11.dtd">
<svg version="1.1" id="Layer_1" xmlns="http://www.w3.org/2000/svg" xmlns:xlink="http://www.w3.org/1999/xlink" x="0px" y="0px"
	 width="232.695px" height="223px" viewBox="0 0 232.695 223" enable-background="new 0 0 232.695 223" xml:space="preserve">
<g id="Layer_1_1_">
</g>
<path fill="none" stroke="#F7F4E4" stroke-width="12" stroke-miterlimit="10" d="M214.847,198c0,6.627-5.373,12-12,12h-173
	c-6.627,0-12-5.373-12-12V25c0-6.627,5.373-12,12-12h173c6.627,0,12,5.373,12,12V198z"/>
<g>
	<path fill="#F7F4E4" d="M61.611,127.5c0-8.801,0-23.201,0-32v-39.15c0-8.8,6.235-12.4,13.856-8l33.905,19.576
		c7.621,4.4,20.092,11.6,27.713,16l33.905,19.575c7.621,4.4,7.621,11.6,0,16l-33.905,19.575c-7.621,4.4-20.092,11.6-27.713,16
		L75.468,174.65c-7.621,4.4-13.856,0.8-13.856-8V127.5z"/>
</g>
</svg>
